# xmcd CD database file
#
# Track frame offsets:
#	150
#	25314
#	63508
#	85614
#	108032
#	137916
#	167783
#	191705
#	221356
#	252249
#
# Disc length: 3808 seconds
#
# Revision: 0
# Processed by: cddbd v1.5.2PL0 Copyright (c) Steve Scherf et al.
# Submitted via: CDex 1.70beta2
#
DISCID=850ede0a
DTITLE=Tria Lingvo - At Its Purest
DYEAR=2012
DGENRE=Jazz
TTITLE0=Humming
TTITLE1=Fool`sHands Hope
TTITLE2=(The Structure of) Culinary Vegetables
TTITLE3=Trahison
TTITLE4=Passing
TTITLE5=Cyan Cycle
TTITLE6=Good Reason
TTITLE7=Voyage
TTITLE8=Steve is Stuck on the M-Train
TTITLE9=Malev
EXTD=YEAR: 2012
EXTT0=
EXTT1=
EXTT2=
EXTT3=
EXTT4=
EXTT5=
EXTT6=
EXTT7=
EXTT8=
EXTT9=
PLAYORDER=
